<mxfile host="app.diagrams.net" agent="Mozilla/5.0 (Macintosh; Intel Mac OS X 10_15_7) AppleWebKit/537.36 (KHTML, like Gecko) Chrome/129.0.0.0 Safari/537.36" version="24.8.0">
  <diagram name="페이지-1" id="HM6IXGUOSMpVclhfgoPe">
    <mxGraphModel dx="964" dy="605" grid="1" gridSize="10" guides="1" tooltips="1" connect="1" arrows="1" fold="1" page="1" pageScale="1" pageWidth="827" pageHeight="1169" math="0" shadow="0">
      <root>
        <mxCell id="0" />
        <mxCell id="1" parent="0" />
        <mxCell id="l3WztcUVu692Jg5IfxBh-4" value="" style="rounded=0;whiteSpace=wrap;html=1;fillColor=#dae8fc;strokeColor=#6c8ebf;" vertex="1" parent="1">
          <mxGeometry x="80" y="80" width="520" height="320" as="geometry" />
        </mxCell>
        <mxCell id="l3WztcUVu692Jg5IfxBh-5" value="" style="rounded=0;whiteSpace=wrap;html=1;fillColor=#b1ddf0;strokeColor=#10739e;" vertex="1" parent="1">
          <mxGeometry x="240" y="120" width="360" height="280" as="geometry" />
        </mxCell>
        <mxCell id="l3WztcUVu692Jg5IfxBh-6" value="" style="rounded=0;whiteSpace=wrap;html=1;fillColor=#1ba1e2;fontColor=#ffffff;strokeColor=#006EAF;" vertex="1" parent="1">
          <mxGeometry x="410" y="160" width="190" height="240" as="geometry" />
        </mxCell>
        <mxCell id="l3WztcUVu692Jg5IfxBh-7" value="&lt;b&gt;인공지능&lt;/b&gt;" style="text;strokeColor=none;align=center;fillColor=none;html=1;verticalAlign=middle;whiteSpace=wrap;rounded=0;fontSize=21;" vertex="1" parent="1">
          <mxGeometry x="109" y="120" width="100" height="30" as="geometry" />
        </mxCell>
        <mxCell id="l3WztcUVu692Jg5IfxBh-8" value="&lt;b&gt;&lt;font style=&quot;font-size: 13px;&quot;&gt;&lt;u&gt;Artificial Intelligence&lt;/u&gt;&lt;/font&gt;&lt;/b&gt;" style="text;strokeColor=none;align=center;fillColor=none;html=1;verticalAlign=middle;whiteSpace=wrap;rounded=0;fontSize=21;" vertex="1" parent="1">
          <mxGeometry x="84" y="140" width="150" height="30" as="geometry" />
        </mxCell>
        <mxCell id="l3WztcUVu692Jg5IfxBh-9" value="&lt;b&gt;기계학습&lt;/b&gt;" style="text;strokeColor=none;align=center;fillColor=none;html=1;verticalAlign=middle;whiteSpace=wrap;rounded=0;fontSize=21;" vertex="1" parent="1">
          <mxGeometry x="270" y="140" width="100" height="30" as="geometry" />
        </mxCell>
        <mxCell id="l3WztcUVu692Jg5IfxBh-10" value="&lt;span style=&quot;font-size: 13px;&quot;&gt;&lt;b&gt;&lt;u&gt;Machine Learning&lt;/u&gt;&lt;/b&gt;&lt;/span&gt;" style="text;strokeColor=none;align=center;fillColor=none;html=1;verticalAlign=middle;whiteSpace=wrap;rounded=0;fontSize=21;" vertex="1" parent="1">
          <mxGeometry x="245" y="160" width="150" height="30" as="geometry" />
        </mxCell>
        <mxCell id="l3WztcUVu692Jg5IfxBh-11" value="&lt;b&gt;딥러닝&lt;/b&gt;" style="text;strokeColor=none;align=center;fillColor=none;html=1;verticalAlign=middle;whiteSpace=wrap;rounded=0;fontSize=21;" vertex="1" parent="1">
          <mxGeometry x="451" y="190" width="100" height="30" as="geometry" />
        </mxCell>
        <mxCell id="l3WztcUVu692Jg5IfxBh-12" value="&lt;span style=&quot;font-size: 13px;&quot;&gt;&lt;b&gt;&lt;u&gt;Deep Learning&lt;/u&gt;&lt;/b&gt;&lt;/span&gt;" style="text;strokeColor=none;align=center;fillColor=none;html=1;verticalAlign=middle;whiteSpace=wrap;rounded=0;fontSize=21;" vertex="1" parent="1">
          <mxGeometry x="426" y="210" width="150" height="30" as="geometry" />
        </mxCell>
        <mxCell id="l3WztcUVu692Jg5IfxBh-13" value="&lt;b&gt;&lt;font color=&quot;#007fff&quot; style=&quot;font-size: 13px;&quot;&gt;- IBM Deep Blue&lt;/font&gt;&lt;/b&gt;" style="text;strokeColor=none;align=center;fillColor=none;html=1;verticalAlign=middle;whiteSpace=wrap;rounded=0;fontSize=21;" vertex="1" parent="1">
          <mxGeometry x="84" y="290" width="150" height="30" as="geometry" />
        </mxCell>
        <mxCell id="l3WztcUVu692Jg5IfxBh-14" value="&lt;span style=&quot;font-size: 13px;&quot;&gt;&lt;b&gt;인간의 지능을 모방하여&lt;/b&gt;&lt;/span&gt;&lt;div&gt;&lt;span style=&quot;font-size: 13px;&quot;&gt;&lt;b&gt;문제해결을 위해 사람처럼&lt;/b&gt;&lt;/span&gt;&lt;/div&gt;&lt;div&gt;&lt;span style=&quot;font-size: 13px;&quot;&gt;&lt;b&gt;학습하고 이해하는 기계&lt;/b&gt;&lt;/span&gt;&lt;/div&gt;" style="text;strokeColor=none;align=center;fillColor=none;html=1;verticalAlign=middle;whiteSpace=wrap;rounded=0;fontSize=21;" vertex="1" parent="1">
          <mxGeometry x="84" y="195" width="150" height="80" as="geometry" />
        </mxCell>
        <mxCell id="l3WztcUVu692Jg5IfxBh-15" value="&lt;span style=&quot;font-size: 13px;&quot;&gt;&lt;b&gt;주어진 데이터를 분석해&lt;/b&gt;&lt;/span&gt;&lt;div&gt;&lt;span style=&quot;font-size: 13px;&quot;&gt;&lt;b&gt;그로부터 일반적인 패턴이나&lt;/b&gt;&lt;/span&gt;&lt;/div&gt;&lt;div&gt;&lt;span style=&quot;font-size: 13px;&quot;&gt;&lt;b&gt;지식을 기계 스스로 자동으로&lt;/b&gt;&lt;/span&gt;&lt;/div&gt;&lt;div&gt;&lt;span style=&quot;font-size: 13px;&quot;&gt;&lt;b&gt;추출하기 위한 접근 방법&lt;/b&gt;&lt;/span&gt;&lt;/div&gt;" style="text;strokeColor=none;align=center;fillColor=none;html=1;verticalAlign=middle;whiteSpace=wrap;rounded=0;fontSize=21;" vertex="1" parent="1">
          <mxGeometry x="245" y="190" width="150" height="120" as="geometry" />
        </mxCell>
        <mxCell id="l3WztcUVu692Jg5IfxBh-16" value="&lt;span style=&quot;font-size: 13px;&quot;&gt;&lt;b&gt;심층 신경망을 기반으로 한&lt;/b&gt;&lt;/span&gt;&lt;div&gt;&lt;span style=&quot;font-size: 13px;&quot;&gt;&lt;b&gt;기계학습 방법 중 하나&lt;/b&gt;&lt;/span&gt;&lt;/div&gt;" style="text;strokeColor=none;align=center;fillColor=none;html=1;verticalAlign=middle;whiteSpace=wrap;rounded=0;fontSize=21;" vertex="1" parent="1">
          <mxGeometry x="426" y="250" width="150" height="70" as="geometry" />
        </mxCell>
        <mxCell id="l3WztcUVu692Jg5IfxBh-17" value="&lt;b&gt;&lt;font color=&quot;#007fff&quot; style=&quot;font-size: 13px;&quot;&gt;- 구글 검색 알고리즘&lt;/font&gt;&lt;/b&gt;&lt;div&gt;&lt;b&gt;&lt;font color=&quot;#007fff&quot; style=&quot;font-size: 13px;&quot;&gt;- 아마존 상품 추천&lt;/font&gt;&lt;/b&gt;&lt;/div&gt;&lt;div&gt;&lt;b&gt;&lt;font color=&quot;#007fff&quot; style=&quot;font-size: 13px;&quot;&gt;- IBM Watson&lt;/font&gt;&lt;/b&gt;&lt;/div&gt;" style="text;strokeColor=none;align=center;fillColor=none;html=1;verticalAlign=middle;whiteSpace=wrap;rounded=0;fontSize=21;" vertex="1" parent="1">
          <mxGeometry x="245" y="310" width="150" height="80" as="geometry" />
        </mxCell>
        <mxCell id="l3WztcUVu692Jg5IfxBh-18" value="&lt;font color=&quot;#b8cbff&quot;&gt;&lt;span style=&quot;font-size: 13px;&quot;&gt;&lt;b&gt;- 알파고&lt;/b&gt;&lt;/span&gt;&lt;/font&gt;&lt;div&gt;&lt;font color=&quot;#b8cbff&quot;&gt;&lt;span style=&quot;font-size: 13px;&quot;&gt;&lt;b&gt;- 음성인식&lt;/b&gt;&lt;/span&gt;&lt;/font&gt;&lt;/div&gt;&lt;div style=&quot;text-align: left;&quot;&gt;&lt;font color=&quot;#b8cbff&quot;&gt;&lt;span style=&quot;font-size: 13px;&quot;&gt;&lt;b&gt;- 자율주행 시스템&lt;/b&gt;&lt;/span&gt;&lt;/font&gt;&lt;/div&gt;" style="text;strokeColor=none;align=center;fillColor=none;html=1;verticalAlign=middle;whiteSpace=wrap;rounded=0;fontSize=21;" vertex="1" parent="1">
          <mxGeometry x="426" y="310" width="150" height="80" as="geometry" />
        </mxCell>
      </root>
    </mxGraphModel>
  </diagram>
</mxfile>
